<?xml version="1.0" standalone="no"?>
<!DOCTYPE svg PUBLIC "-//W3C//DTD SVG 20010904//EN"
 "http://www.w3.org/TR/2001/REC-SVG-20010904/DTD/svg10.dtd">
<svg version="1.0" xmlns="http://www.w3.org/2000/svg"
 width="1980.000000pt" height="1080.000000pt" viewBox="0 0 1980.000000 1080.000000"
 preserveAspectRatio="xMidYMid meet">

<g transform="translate(0.000000,1080.000000) scale(0.100000,-0.100000)"
fill="#000000" stroke="none">
<path d="M4600 5450 l0 -5000 5000 0 5000 0 0 5000 0 5000 -5000 0 -5000 0 0
-5000z m9600 0 l0 -4600 -4600 0 -4600 0 0 4600 0 4600 4600 0 4600 0 0 -4600z"/>
<path d="M7917 7848 c-9 -117 -26 -325 -37 -463 -11 -137 -22 -265 -24 -282
l-5 -33 54 0 c49 0 55 3 59 23 3 12 13 60 22 107 24 125 71 277 107 343 44 84
122 158 209 201 140 69 136 69 981 73 416 2 757 1 757 -2 0 -4 -541 -778 -854
-1222 -56 -79 -116 -164 -134 -190 -18 -27 -140 -200 -270 -386 -130 -185
-275 -392 -323 -460 -81 -116 -596 -850 -926 -1319 -28 -40 -33 -57 -33 -103
l0 -55 905 0 905 0 0 -560 0 -560 55 0 c52 0 55 2 60 28 24 115 50 162 102
187 67 32 112 22 583 -124 91 -28 208 -59 260 -68 133 -23 442 -23 569 1 269
49 467 151 651 334 217 215 320 454 320 745 0 355 -167 660 -485 885 -109 77
-340 216 -570 342 -777 427 -1003 598 -1087 825 -18 49 -22 81 -22 170 0 131
17 183 97 301 67 99 153 176 252 225 108 53 179 70 315 76 371 17 754 -185
941 -498 77 -129 150 -350 180 -546 l12 -83 54 0 53 0 0 680 0 680 -55 0 c-42
0 -55 -4 -55 -15 0 -36 -46 -133 -80 -167 -64 -64 -141 -62 -308 8 -143 60
-330 122 -442 145 -81 17 -141 22 -265 23 -88 0 -177 -3 -199 -7 -32 -7 -38
-6 -33 6 3 8 76 115 163 238 86 123 182 260 212 304 75 109 263 377 275 393 7
9 -286 12 -1460 12 l-1469 0 -17 -212z m1408 -2080 c31 -95 108 -228 186 -322
151 -181 348 -320 879 -624 129 -74 236 -135 237 -136 1 -1 -17 -31 -41 -67
-106 -158 -257 -247 -483 -284 -86 -14 -207 -15 -970 -13 l-871 3 184 265
c102 146 201 288 222 317 20 28 172 245 337 482 165 237 301 431 302 431 1 0
9 -24 18 -52z m1594 -1253 c242 -150 384 -306 443 -485 42 -130 34 -314 -19
-429 -58 -125 -189 -259 -317 -321 -141 -70 -212 -83 -431 -83 -182 -1 -195 1
-310 31 -216 57 -434 184 -562 328 -99 110 -167 240 -224 429 l-27 90 628 3
627 2 16 88 c9 48 29 158 44 245 15 86 31 157 35 157 5 0 48 -25 97 -55z"/>
</g>
</svg>
