<svg width="24" height="24" viewBox="0 0 24 24" fill="none" xmlns="http://www.w3.org/2000/svg">
<path d="M18.6667 24.0004C16.4617 23.9984 14.2911 23.4534 12.3467 22.4137L11.7467 22.0804C7.601 19.8514 4.20225 16.4526 1.97333 12.307L1.64 11.707C0.573094 9.75158 0.00950749 7.56129 8.29008e-07 5.33369V4.44036C-0.000559171 3.72964 0.282614 3.04809 0.786667 2.54702L3.04 0.29369C3.25884 0.0731566 3.56775 -0.0331367 3.87595 0.00603667C4.18415 0.04521 4.45664 0.225423 4.61333 0.49369L7.61333 5.64036C7.91671 6.16421 7.82911 6.8267 7.4 7.25369L4.88 9.77372C4.67072 9.98065 4.62196 10.3004 4.76 10.5604L5.22667 11.4404C6.90272 14.5449 9.4524 17.09 12.56 18.7604L13.44 19.2404C13.7 19.3784 14.0197 19.3296 14.2267 19.1204L16.7467 16.6004C17.1736 16.1713 17.8361 16.0837 18.36 16.387L23.5067 19.387C23.7749 19.5437 23.9552 19.8162 23.9943 20.1244C24.0335 20.4326 23.9272 20.7416 23.7067 20.9604L21.4533 23.2137C20.9523 23.7177 20.2707 24.0009 19.56 24.0004H18.6667Z" fill="black"/>
</svg>
